<!-- Generator: Adobe Illustrator 22.0.1, SVG Export Plug-In  -->
<svg version="1.1"
	 xmlns="http://www.w3.org/2000/svg" xmlns:xlink="http://www.w3.org/1999/xlink" xmlns:a="http://ns.adobe.com/AdobeSVGViewerExtensions/3.0/"
	 x="0px" y="0px" width="254.4px" height="232px" viewBox="0 0 254.4 232" style="enable-background:new 0 0 254.4 232;"
	 xml:space="preserve">
<style type="text/css">
	.st0{fill:#D0B987;}
	.st1{fill:#B18E5B;}
	.st2{opacity:0.85;fill:#070001;}
	.st3{fill:#070001;}
</style>
<defs>
</defs>
<g id="XMLID_1_">
	<g id="XMLID_11_">
		<path id="XMLID_12_" class="st0" d="M127.3,97.9c-4.2,0-8.5-0.6-12.7-1.7c-12.6-3.4-23.2-11.5-29.7-22.8
			c-6.5-11.3-8.3-24.5-4.9-37.1c3.4-12.6,11.5-23.2,22.8-29.7C114,0,127.2-1.7,139.8,1.7c12.6,3.4,23.2,11.5,29.7,22.8
			c6.5,11.3,8.3,24.5,4.9,37.1c-3.4,12.6-11.5,23.2-22.8,29.7C144.1,95.7,135.7,97.9,127.3,97.9z M127.1,2.2
			c-8.1,0-16.1,2.1-23.3,6.3C93,14.8,85.3,24.8,82.1,36.9c-3.2,12-1.6,24.6,4.7,35.4C93,83.1,103.1,90.8,115.1,94
			c12,3.2,24.6,1.6,35.4-4.7c10.8-6.2,18.5-16.3,21.7-28.3c3.2-12,1.6-24.6-4.7-35.4c-6.2-10.8-16.3-18.5-28.3-21.7
			C135.2,2.8,131.2,2.2,127.1,2.2z"/>
	</g>
	<path id="XMLID_8_" class="st0" d="M164.7,35.1c-1.1-2.4-1.3-4.9-0.8-7.3c-2.3-0.8-4.4-2.2-6-4.3c-3.9-5.3-11.4-6.5-16.7-2.6
		c-0.2,0.2-0.4,0.3-0.6,0.5c0.7,0.2,1.4,0.4,2.1,0.8c3.4,2,4.6,6.4,2.6,9.8c-2,3.4-6.4,4.6-9.8,2.6l0,0c-5-2.9-11.4-3.1-16.7,0l0,0
		l0,0c-3.4,2-7.8,0.8-9.8-2.6c-2-3.4-0.8-7.8,2.6-9.8c0.7-0.4,1.3-0.6,2-0.8c-0.2-0.2-0.4-0.3-0.6-0.5c-5.3-3.9-12.8-2.7-16.7,2.6
		c-1.5,2.1-3.6,3.6-6,4.3c0.5,2.4,0.3,4.9-0.8,7.3c-2.7,6,0,13.1,6.1,15.8c0.2,0.1,0.5,0.2,0.7,0.3c-0.2-0.7-0.3-1.4-0.3-2.2
		c0-4,3.2-7.2,7.2-7.2c4,0,7.2,3.2,7.2,7.2l0,0c0,2.8,0.7,5.7,2.2,8.4c1.5,2.6,3.7,4.7,6.1,6.1l0,0c3.4,2,4.6,6.4,2.6,9.8
		c-2,3.4-6.4,4.6-9.8,2.6c-0.7-0.4-1.2-0.8-1.7-1.4c0,0.3-0.1,0.5-0.1,0.8c-0.7,6.6,4.1,12.4,10.6,13.1c2.6,0.3,4.9,1.4,6.7,3
		c1.8-1.6,4.1-2.7,6.7-3c6.6-0.7,11.3-6.6,10.6-13.1c0-0.3-0.1-0.5-0.1-0.8c-0.5,0.5-1.1,1-1.7,1.4c-3.4,2-7.8,0.8-9.8-2.6
		c-2-3.4-0.8-7.8,2.6-9.8l0,0l0,0c5.4-3.1,8.4-8.7,8.4-14.5l0,0c0-4,3.2-7.2,7.2-7.2c4,0,7.2,3.2,7.2,7.2c0,0.8-0.1,1.5-0.3,2.2
		c0.2-0.1,0.5-0.2,0.7-0.3C164.7,48.1,167.4,41.1,164.7,35.1z M152.5,37.4l-0.1,0.2c-8.1,1.6-15.6,6.6-20,14.4l0,0
		c-4.5,7.8-5.1,16.7-2.4,24.5l-0.2,0.2c-0.5,1.2-1.4,2.2-2.6,2.8c-1.2-0.6-2.1-1.6-2.6-2.8l-0.2-0.2c2.7-7.9,2.1-16.8-2.4-24.5l0,0
		c-4.5-7.8-11.9-12.7-20-14.4l-0.1-0.2c-0.8-1.1-1.2-2.4-1.2-3.7c1.1-0.7,2.4-1,3.8-0.8l0.2-0.1C110.2,39,118.2,43,127.2,43h0
		c9,0,17-3.9,22.5-10.2l0.2,0.1c1.3-0.1,2.6,0.1,3.8,0.8C153.7,35,153.2,36.3,152.5,37.4z"/>
	<g id="XMLID_4_">
		<path id="XMLID_7_" class="st1" d="M113.3,39.6c4.1,2.2,8.8,3.4,13.8,3.4h0c5,0,9.7-1.2,13.9-3.4c-1.5-2.2-3.4-3.9-5.5-5.1
			c0,0,0,0,0,0c-3.4-2-4.6-6.4-2.6-9.8c0.9-1.5,2.2-2.6,3.7-3.1c-0.4-3.1-2.2-5.8-4.9-7.2c0.1-0.4,0.2-0.8,0.2-1.2
			c0-2.6-2.1-4.8-4.8-4.8c-2.6,0-4.8,2.1-4.8,4.8c0,0.4,0.1,0.8,0.2,1.2c-2.6,1.5-4.5,4.1-4.9,7.2c1.5,0.6,2.9,1.6,3.7,3.1
			c2,3.4,0.8,7.8-2.6,9.8l0,0l0,0C116.5,35.8,114.7,37.5,113.3,39.6z"/>
		<path id="XMLID_6_" class="st1" d="M160.6,62.7c-0.4-0.2-0.7-0.4-1.1-0.5c0.1-3-1.3-5.9-3.8-7.8c-1.2,1-2.8,1.7-4.6,1.7
			c-4,0-7.2-3.2-7.2-7.2c0,0,0,0,0,0c0-2.5-0.5-5-1.7-7.3c-4,2.5-7.4,6-9.9,10.3l0,0c-2.5,4.3-3.8,9-4,13.7c2.4-0.2,4.9-0.9,7.2-2.2
			l0,0l0,0c3.4-2,7.8-0.8,9.8,2.6c0.9,1.5,1.1,3.2,0.9,4.8c2.9,1.2,6.1,1,8.7-0.6c0.3,0.3,0.6,0.5,1,0.7c2.3,1.3,5.2,0.5,6.5-1.8
			C163.7,67,162.9,64.1,160.6,62.7z"/>
		<path id="XMLID_5_" class="st1" d="M122,51.9L122,51.9c-2.5-4.3-5.9-7.8-9.9-10.3c-1.1,2.3-1.7,4.8-1.7,7.3c0,0,0,0,0,0
			c0,4-3.2,7.2-7.2,7.2c-1.7,0-3.3-0.6-4.6-1.7c-2.5,1.9-3.9,4.8-3.8,7.8c-0.4,0.1-0.8,0.3-1.1,0.5c-2.3,1.3-3.1,4.2-1.8,6.5
			c1.3,2.3,4.2,3.1,6.5,1.8c0.4-0.2,0.7-0.5,1-0.7c2.6,1.5,5.8,1.8,8.7,0.6c-0.3-1.6,0-3.3,0.9-4.8c2-3.4,6.4-4.6,9.8-2.6l0,0
			c2.2,1.3,4.6,2,7.2,2.2C125.8,61,124.5,56.3,122,51.9z"/>
	</g>
	<g id="XMLID_2_">
		<path id="XMLID_3_" class="st0" d="M137.9,50.9C137.9,50.9,137.9,50.9,137.9,50.9c-3.2,1.1-6.9-0.1-8.6-3.2c-1.8-3-1-6.8,1.6-9
			c0,0,0,0,0,0c-0.2-2-1.7-3.7-3.6-4.2c-1.9,0.5-3.4,2.2-3.6,4.2c0,0,0,0,0,0c2.6,2.2,3.3,6,1.6,9c-1.8,3-5.4,4.3-8.6,3.2
			c0,0,0,0,0,0c-1.6,1.2-2.4,3.3-1.8,5.2c1.4,1.4,3.6,1.8,5.5,1l0,0c0,0,0,0,0,0c0.6-3.3,3.5-5.9,7-5.9c3.5,0,6.4,2.5,7,5.9
			c0,0,0,0,0,0l0,0c1.9,0.8,4.1,0.4,5.5-1C140.2,54.2,139.5,52.2,137.9,50.9z"/>
	</g>
</g>
<g>
	<path class="st2" d="M57.5,159.8l-0.4,0.4h-6.3l2.2-0.4H57.5z M44.5,125.3l-0.4-0.4v0.8L44.5,125.3z M50.8,125.3h-6.3l-0.4,0.4h4.5
		L50.8,125.3z M44.5,160.2l-0.4-0.4v0.8L44.5,160.2z M57.1,160.2l0.4,0.4v-0.8L57.1,160.2z M79,160.2l0.4,0.4v-0.8L79,160.2z
		 M48.6,125.7v34.1l2.2,0.4v-34.9L48.6,125.7z M44.5,160.2h6.3l-2.2-0.4h-4.5L44.5,160.2z M50.8,160.2l2.2-0.4v-15.4l-2.2-0.4V160.2
		z M44.5,160.2l-0.4,0.4h13.4l-0.4-0.4H44.5z M50.8,144l2.2-0.4v-17.9l-2.2-0.4V144z M50.8,125.3l2.2,0.4h3.1h0c4.4,0,8,4,8,8.9
		c0,4.9-3.6,8.9-8,8.9v0h-3.1l-2.2,0.4H57c6.1,0,9.5-5,9.5-9.3c0-4.3-3-9.3-9.9-9.3H50.8z M72.6,156.9l-10.2-13.3l-2.1-0.2
		c0,0,7,9.7,9.3,12.9c2.3,3.1,5.5,3.9,9.4,3.9l0.4-0.4h-0.7C76.2,159.8,74.1,158.7,72.6,156.9 M44.1,124.9l0.4,0.4h12.1
		c6.9,0,9.9,5,9.9,9.3c0,3.5-2.2,7.4-6.3,8.8l0,0l2.1,0.2c3.8-1.5,6.3-4.9,6.3-9c0-5.4-4.2-9.7-10-9.7H44.1z M60.3,143.4
		c-1,0.3-2.1,0.5-3.3,0.5h-6.1l2.2,0.4h5.7L60.3,143.4L60.3,143.4z M69.6,156.3c-2.3-3.1-9.3-12.9-9.3-12.9l-1.5,0.9l8.5,12.5
		c0,0,0,0.1,0.1,0.1l0.1,0.1l0,0c1.7,2.1,2.9,3.5,7.1,3.5h4.9l-0.4-0.4C75.1,160.2,71.8,159.4,69.6,156.3 M0.4,125.3L0,124.9v0.8
		L0.4,125.3z M0.4,160.2L0,159.8v0.8L0.4,160.2z M13,160.2l0.4,0.4v-0.8L13,160.2z M4.5,125.7v34.1l2.2,0.4v-34.9L4.5,125.7z
		 M0.4,160.2h6.3l-2.2-0.4H0L0.4,160.2z M8.9,159.8l-2.2,0.4H13l0.4-0.4H8.9z M6.7,160.2l2.2-0.4v-18.4L6.7,141V160.2z M6.7,141
		l2.2-0.4v-14.9l-2.2-0.4V141z M245.4,125.7v34.1l2.2,0.4v-34.9L245.4,125.7z M247.7,160.2l2.2-0.4v-34.1l-2.2-0.4V160.2z
		 M24.5,130.4l-0.2,0.2h0.4L24.5,130.4z M19.9,146.1l-0.2,0.2h0.4L19.9,146.1z M6.7,125.3H0.4L0,125.7h4.5L6.7,125.3z M137.9,125.3
		l-0.4-0.4v0.8L137.9,125.3z M0.4,160.2L0,160.6h13.4l-0.4-0.4H0.4z M241.4,160.2l-0.4-0.4v0.8L241.4,160.2z M254,160.2l0.4,0.4
		v-0.8L254,160.2z M241.4,160.2h6.3l-2.2-0.4H241L241.4,160.2z M249.9,159.8l-2.2,0.4h6.3l0.4-0.4H249.9z M241.4,160.2l-0.4,0.4
		h13.4l-0.4-0.4H241.4z M88.1,160.2l-0.4-0.4v0.8L88.1,160.2z M97.7,160.2l0.4,0.4v-0.8L97.7,160.2z M110.9,160.2l-0.4-0.4v0.8
		L110.9,160.2z M123.7,160.2l0.4,0.4v-0.8L123.7,160.2z M88.1,160.2l-0.4,0.4h10.4l-0.4-0.4H88.1z M137.9,160.2l-0.4-0.4v0.8
		L137.9,160.2z M147.5,160.2l0.4,0.4v-0.8L147.5,160.2z M137.9,160.2l-0.4,0.4h10.4l-0.4-0.4H137.9z M18.4,141H6.7l2.2,0.4h7.2
		c1.6,0,3,2.1,3.5,5l0.2-0.2C19.9,143.3,18.4,141,18.4,141 M20.1,135.6h-0.4l0.2,0.2L20.1,135.6z M18.4,141c0,0,1.5-2.3,1.5-5.1
		l-0.2-0.2c-0.5,2.9-1.9,5-3.5,5H8.9L6.7,141H18.4z M19.9,135.8c0,2.9-1.5,5.1-1.5,5.1s1.5,2.3,1.5,5.1l0.2,0.2v-10.7L19.9,135.8z
		 M23.2,126.4c0,0-2.1-1.1-5.9-1.1H6.7l2.2,0.4h8.4c3.2,0,6,2.1,7,5l0.2-0.2C24.5,128.5,23.2,126.4,23.2,126.4 M24.7,124.9l-1.5,1.5
		c0,0-2.1-1.1-5.9-1.1h-17L0,124.9H24.7z M19.4,126c-0.2-0.1-0.4-0.1-0.7-0.2C19,125.9,19.2,125.9,19.4,126 M23.2,126.4
		c0,0,1.3,2.1,1.3,4.1l0.2,0.2v-5.8L23.2,126.4z M88.1,160.2h4.8l-0.6-0.4h-4.6L88.1,160.2z M93.8,159.8l-0.9,0.4h4.8l0.4-0.4H93.8z
		 M98.1,145.5l-5.3,14.7l0.9-0.4l5-14L98.1,145.5z M98.1,145.5l0.9-0.4l5.3-14.8l0.6-3.6L98.1,145.5z M92.3,159.8l0.6,0.4l12-33.6
		l0.1-2.4 M104.9,126.6l1.4-2.4H105L104.9,126.6z M98.7,145.9h11.1l2-0.4H98.1L98.7,145.9z M99,145.1l-0.9,0.4h13.7l-2.3-0.4H99z
		 M104.9,126.6l-0.6,3.6l5.3,14.8l2.3,0.4L104.9,126.6z M114.8,159.8l2.5,0.4l-5.5-14.7l-2,0.4L114.8,159.8z M110.5,160.6h13.6
		l-0.4-0.4h-12.8L110.5,160.6z M110.9,160.2h6.4l-2.5-0.4h-4.3L110.9,160.2z M123.7,160.2l0.4-0.4h-4.6l-2.2,0.4H123.7z
		 M106.3,124.2l-1.4,2.4l12.4,33.6l2.2-0.4L106.3,124.2z M142.7,160.2l-0.7-0.4h-4.5l0.4,0.4H142.7z M137.5,125.7h4.5l0.7-0.4h-4.8
		L137.5,125.7z M142.7,125.3l-0.7,0.4v34.1l0.7,0.4V125.3z M142.7,125.3c1.8,0,3.3,1.6,3.3,1.6l1.1-2h-9.6l0.4,0.4H142.7z
		 M142.7,160.2l0.7-0.4v-32.9l-0.7-1.6V160.2z M143.5,159.8l-0.7,0.4h4.8l0.4-0.4H143.5z M172.9,125.3l0.4,0.4v-0.8L172.9,125.3z
		 M163.3,125.3l-0.4-0.4v0.8L163.3,125.3z M172.9,125.3l0.4-0.4h-10.4l0.4,0.4H172.9z M168.1,125.3l0.7,0.4h4.5l-0.4-0.4H168.1z
		 M167.4,125.7l0.7-0.4h-4.8l-0.4,0.4H167.4z M254,125.3l0.4,0.4v-0.8L254,125.3z M241.4,125.3l-0.4-0.4v0.8L241.4,125.3z
		 M254,125.3l0.4-0.4H241l0.4,0.4H254z M247.7,125.3l2.2,0.4h4.5l-0.4-0.4H247.7z M245.4,125.7l2.2-0.4h-6.3l-0.4,0.4H245.4z
		 M168.1,125.3v31.9l0.7,3.5l0-34.9L168.1,125.3z M168.1,157.1L146,126.9c0,0-1.5-1.6-3.3-1.6l0.7,1.6l24.7,33.7L168.1,157.1z
		 M168.1,157.1l0,3.5h0.7L168.1,157.1z M147.1,124.9l-1.1,2l22.1,30.3l-0.7-4.3L147.1,124.9z M168.1,125.3l-0.7,0.4l0,27.1l0.7,4.3
		V125.3z M223.1,144l0.4,0.4v-0.8L223.1,144z M211,144l-0.4-0.4v0.8L211,144z M223.1,144l0.4-0.4h-12.9l0.4,0.4H223.1z M217.8,144
		l2.2,0.4h3.5l-0.4-0.4H217.8z M215.6,144.4l2.2-0.4H211l-0.4,0.4H215.6z M209.2,124.2c-11.3,0-19.7,8.3-19.7,18.5
		c0,10.2,8.4,18.5,19.7,18.5c3.7,0,7.5-0.5,10.8-1.9l-2.2-0.2c-0.5,0.2-1.2,0.4-1.6,0.6c-2.4,0.7-4.8,0.9-7.3,0.8
		c-8.6-0.5-15.5-7.1-16.7-15.7c-1.2-8.8,3.5-17,11.5-19.4c2-0.6,4.2-0.8,6.3-0.5c3.1,0.3,6.1,1.4,8,2.6l2.1-2.1
		C220,125.5,214,124.2,209.2,124.2z M203.6,125.5c-8,2.4-12.7,10.6-11.5,19.4c1.2,8.6,8.1,15.2,16.7,15.7c2.5,0.1,5-0.1,7.3-0.8
		c0.5-0.1,1.1-0.3,1.6-0.6l-2.2-0.2c-0.4,0.2-1,0.4-1.3,0.4c-7.8,2.4-16.7-3.2-19.5-12.5c-2.8-9.3,1.6-18.7,9.4-21.1
		c2.2-0.7,4.4-0.7,6.6-0.2c4.4,1,7.5,3.9,8.8,8l0.4-0.4c0-2.9-1.8-5.5-1.9-5.7l0,0c-1.9-1.3-4.9-2.3-8-2.6c-0.6-0.1-1.2-0.1-1.8-0.1
		C206.6,124.8,205.1,125.1,203.6,125.5 M217.8,144v15.2l2.2,0.2v-15.1L217.8,144z M217.8,144l-2.2,0.4V159l2.2,0.2V144z
		 M219.9,133.3l0.4,0.4l-0.3-8.2l-2.1,2.1C218,127.6,219.9,130.2,219.9,133.3 M219.9,133.3l-0.4,0.4h0.8L219.9,133.3z"/>
	<g>
		<path class="st3" d="M70.1,186.4c2.2,4.8,6.7,7.6,12.8,8.8l-0.1,0.3c-0.7,0.1-1.3,0.6-1.6,1.5c-6-1.8-10-5-11.9-10.6h-0.9
			c-1.4,4.5-4.9,8.4-13.7,10.7l-0.2-0.6c7.7-2.4,10.9-6,12.2-10.1H55.2l-0.3-0.9H67c0.4-1.6,0.5-3.3,0.6-5h-10l-0.2-0.9h10.2V175
			l2.7,0.3c-0.1,0.4-0.3,0.7-1,0.8v3.5h7.3l1.4-1.6c0,0,1.5,1.2,2.5,2.1c-0.1,0.3-0.4,0.5-0.8,0.5H69.3c0,1.7-0.2,3.4-0.6,5h9.7
			l1.4-1.7c0,0,1.6,1.2,2.6,2.2c-0.1,0.3-0.4,0.5-0.8,0.5H70.1z M54.8,173.4l-0.2-0.9H63V169l2.7,0.3c-0.1,0.4-0.3,0.7-1.1,0.8v2.4
			h7.8V169l2.7,0.3c-0.1,0.4-0.3,0.7-1.1,0.8v2.4h4.6l1.4-1.7c0,0,1.6,1.3,2.5,2.1c-0.1,0.3-0.4,0.5-0.8,0.5h-7.7v2.4
			c0,0.2-0.5,0.5-1.4,0.5h-0.3v-3h-7.8v2.6c0,0.2-0.7,0.5-1.4,0.5H63v-3H54.8z"/>
		<path class="st3" d="M129.3,181.4c-0.1,0.3-0.4,0.5-1.2,0.6c2.7,3.1,7.8,5.8,13,7.3l0,0.5c-0.8,0.2-1.5,0.7-1.7,1.4
			c-1.6-0.6-3.1-1.3-4.5-2.1l0.4,0.3c-0.2,0.2-0.6,0.4-1,0.5v6.6c0,0.2-0.9,0.6-1.4,0.6h-0.2v-1.6h-11.2v1.1c0,0.2-0.6,0.6-1.4,0.6
			h-0.3v-8.4c-2,1.2-4.2,2.2-6.4,3l-0.2-0.5c5.2-2.2,11.2-6.9,12.9-10.5L129.3,181.4z M113.3,173l-0.2-0.9h8.2V169l2.7,0.3
			c-0.1,0.4-0.3,0.7-1.1,0.8v2h8.1V169l2.7,0.3c0,0.4-0.3,0.7-1.1,0.8v2h4.5l1.3-1.7c0,0,1.6,1.2,2.5,2.1c-0.1,0.3-0.4,0.5-0.8,0.5
			h-7.6v1.9c0,0.2-0.5,0.5-1.4,0.5H131V173h-8.1v2c0,0.2-0.7,0.4-1.4,0.4h-0.2V173H113.3z M140.5,178c-0.2,0.2-0.6,0.3-1.1,0.3
			c-0.7,0.9-2.1,2.2-3.1,2.9l-0.4-0.2c0.4-0.7,1-1.9,1.4-2.9h-20c-0.1,1.9-1,3.1-1.8,3.6c-0.7,0.5-1.7,0.6-2,0
			c-0.2-0.5,0.1-1,0.7-1.4c1.2-0.7,2.4-2.5,2.3-4.5h0.6c0.1,0.5,0.2,0.9,0.2,1.3h20l1.1-1.1L140.5,178z M114.9,185.9
			c2.8-1.8,5.7-4.8,7.2-7l2.4,1.2c-0.2,0.3-0.5,0.4-1.1,0.2c-1.7,2-4.8,4.5-8.1,6L114.9,185.9z M133.1,187.9
			c-2.4-1.6-4.3-3.5-5.6-5.6c-1.5,2-4,4.1-6.9,5.8l1.1,0.5h10.6L133.1,187.9z M132.6,194.5v-4.9h-11.2v4.9H132.6z M125.1,173.9
			c4.6,0.8,3.2,4,1.5,2.9c-0.2-1-1-2.1-1.8-2.7L125.1,173.9z M130.2,179.3c8.4,2,8.2,6.6,6,5.7c-1-1.9-4-4.1-6.3-5.3L130.2,179.3z"
			/>
		<path class="st3" d="M182.4,193c0,1.5-0.3,2.4-2.7,2.7c-0.1-0.5-0.2-1-0.6-1.3c-0.4-0.3-1.2-0.6-2.4-0.7v-0.5c0,0,2.8,0.2,3.4,0.2
			c0.6,0,0.7-0.2,0.7-0.7v-7.1h-5.4c-0.3,4-1.1,8.2-3.6,11.4l-0.5-0.3c2.5-4.8,2.7-10.9,2.7-16.6v-10.5l2,0.9h4.7l0.9-1.1l2.2,1.7
			c-0.2,0.2-0.6,0.5-1.2,0.6V193z M180.7,184.8v-6.3h-5.3v1.8c0,1.4,0,3-0.1,4.6H180.7z M175.5,171.6v5.9h5.3v-5.9H175.5z
			 M199.1,193.9c0.6,0.2,0.7,0.4,0.7,0.8c0,0.7-0.8,1-3.6,1h-1.5c-1.7,0-2-0.6-2-1.8v-22.1h-5.4v9.1c0,5.6-0.5,12-5.3,16.3l-0.5-0.4
			c3.6-4.4,4.1-10,4.1-15.9v-11l2,1h4.7l1-1.2l2.2,2c-0.2,0.2-0.6,0.4-1.4,0.5v21.2c0,0.5,0.1,0.7,0.7,0.7h1.1c0.6,0,1,0,1.2,0
			c0.2,0,0.2-0.1,0.3-0.4c0.2-0.5,0.6-3.5,0.9-5.6h0.4L199.1,193.9z"/>
	</g>
</g>
<g>
	<path d="M30.5,229.1c1.1-0.2,3.7-0.8,6.3-1.5l0.1,0.2c-1.2,0.6-2.9,1.5-5.3,2.5c-0.1,0.2-0.3,0.4-0.4,0.5L30.5,229.1z M30.7,225.2
		c0,0,0.4-0.1,0.5-0.2c1-0.9,2.1-2.4,3.1-3.9c-0.7,0.3-1.6,0.6-2.6,0.9c-0.1,0.1-0.2,0.2-0.3,0.2l-0.7-1.7c0,0,0.4-0.1,0.5-0.2
		c1-1,2.4-3.7,2.9-5.1L36,216c-0.1,0.2-0.3,0.3-0.6,0.3c-0.8,1.4-2.3,3.1-3.6,4.3c0.8,0,1.8-0.1,2.9-0.2c0.4-0.7,0.7-1.3,1-1.9
		l1.7,0.9c-0.1,0.1-0.3,0.3-0.7,0.2c-1,1.6-2.9,3.8-4.7,5.4c1.2-0.2,3-0.4,4.7-0.7l0,0.3c-1.1,0.5-3,1.3-5.1,2
		c-0.1,0.1-0.1,0.1-0.2,0.1L30.7,225.2z M42.9,216c-0.1,0.2-0.3,0.3-0.7,0.3c1,2.1,3.4,3.9,5.4,4.9l0,0.2c-0.6,0.3-1,0.7-1.1,1.4
		c-1.9-1.4-3.5-3.7-4.5-6c-1.7,3.1-3.9,5.4-6.3,6.8l-0.2-0.2c2.1-1.7,4.3-4.7,5.6-8.1L42.9,216z M44.5,224.2l1.6,1.2
		c-0.1,0.1-0.4,0.3-0.7,0.3v5.7c0,0.1-0.7,0.4-1.2,0.4H44v-1.2H39v0.8c0,0.1-0.6,0.4-1.2,0.4h-0.2v-7.5l1.5,0.6h4.7L44.5,224.2z
		 M43.3,221c0,0,1,0.8,1.6,1.4c-0.1,0.2-0.2,0.3-0.5,0.3h-6l-0.1-0.5h4.1L43.3,221z M44,230.1v-4.6H39v4.6H44z"/>
	<path d="M62.5,229.1c0,1.1-0.2,1.7-1.9,1.9c0-0.4-0.1-0.8-0.3-1c-0.2-0.2-0.6-0.4-1.3-0.5v-0.3c0,0,1.5,0.1,1.8,0.1
		c0.3,0,0.4-0.1,0.4-0.4v-3.8h-2.7c-0.2,2.4-0.7,4.9-2.4,6.8l-0.3-0.1c1.4-2.8,1.4-6.4,1.4-9.8v-6.2l1.6,0.6h2.2l0.7-0.8l1.5,1.2
		c-0.1,0.1-0.4,0.3-0.7,0.3V229.1z M61.1,224.6V221h-2.6v1c0,0.8,0,1.7-0.1,2.7H61.1z M58.5,216.9v3.5h2.6v-3.5H58.5z M72.1,229.5
		c0.4,0.2,0.5,0.3,0.5,0.6c0,0.6-0.5,0.9-2.2,0.9h-0.8c-1.1,0-1.3-0.4-1.3-1.3v-12.6h-2.7v5.4c0,3.3-0.3,7-3.4,9.5l-0.3-0.2
		c2.1-2.6,2.3-5.9,2.3-9.3v-6.6l1.6,0.7H68l0.8-0.9l1.6,1.4c-0.1,0.1-0.3,0.2-0.8,0.3v12c0,0.3,0.1,0.4,0.3,0.4h0.5
		c0.3,0,0.4,0,0.5,0c0.1,0,0.2,0,0.2-0.2c0.1-0.3,0.4-2,0.6-3.2H72L72.1,229.5z"/>
	<path d="M87.3,230c0,1.1-0.2,1.7-2,1.9c-0.1-0.5-0.1-0.8-0.3-1c-0.2-0.2-0.6-0.4-1.3-0.5v-0.3c0,0,1.5,0.1,1.9,0.1s0.4-0.1,0.4-0.4
		v-4.6h-2.4c-0.2,2.4-0.7,4.8-2.3,6.7l-0.3-0.2c1.2-2.8,1.2-6.4,1.2-9.7v-6.4l1.6,0.7h1.9l0.7-0.8l1.6,1.2c-0.1,0.1-0.4,0.3-0.7,0.3
		V230z M85.9,224.7V221h-2.3v1.1c0,0.8,0,1.7-0.1,2.6H85.9z M83.5,216.9v3.6h2.3v-3.6H83.5z M93.2,224.1c0.5,2.1,1.8,4.6,4.8,6.2
		l0,0.2c-0.7,0.1-1.1,0.5-1.3,1.3c-2.6-1.9-3.5-5.4-3.8-7.7c-0.4,3.2-1.8,6-5.5,7.8l-0.2-0.2c3-1.9,4-4.5,4.3-7.5h-3.6l-0.1-0.5h3.8
		c0-0.6,0.1-1.2,0.1-1.7v-2.4h-3.2l-0.1-0.5h3.4v-3.7l2.1,0.2c-0.1,0.2-0.2,0.4-0.6,0.5v3h1.8l0.9-1.2c0,0,1,0.8,1.7,1.4
		c0,0.2-0.2,0.3-0.5,0.3H93v2.4c0,0.6,0,1.2-0.1,1.7h2.3l0.9-1.2c0,0,1.1,0.8,1.7,1.5c-0.1,0.2-0.3,0.3-0.5,0.3H93.2z"/>
	<path d="M114.1,219c-0.1,0.1-0.4,0.3-0.8,0.4v10.9c0,0.1-0.7,0.5-1.2,0.5h-0.2v-1.4h-3.5v1.4c0,0.2-0.5,0.5-1.1,0.5h-0.3v-13.4
		l1.4,0.7h0.5c0.2-0.9,0.4-2.3,0.6-3.2l2.2,0.5c-0.1,0.3-0.3,0.4-0.7,0.4c-0.4,0.7-1,1.6-1.4,2.3h2.1l0.7-0.8L114.1,219z
		 M108.4,219.1v4.5h3.5v-4.5H108.4z M111.9,228.9v-4.8h-3.5v4.8H111.9z M122.8,219c-0.1,0.2-0.4,0.3-0.8,0.3
		c-0.1,6.8-0.4,10.6-1.3,11.7c-0.5,0.6-1.3,0.9-2.3,0.9c0-0.5-0.1-0.9-0.4-1.1c-0.3-0.3-1-0.5-1.8-0.6l0-0.3
		c0.8,0.1,2.1,0.2,2.6,0.2c0.4,0,0.5-0.1,0.7-0.3c0.7-0.6,0.9-4.6,1-10.7h-4.1c-0.8,1.5-1.7,2.8-2.7,3.8l-0.3-0.2
		c1.1-1.8,2.2-4.6,2.8-7.4l2.1,0.6c-0.1,0.2-0.3,0.4-0.7,0.4c-0.3,0.8-0.6,1.5-1,2.3h3.6l0.8-0.9L122.8,219z M115.3,222.3
		c4.6,1.8,3.3,5,1.8,3.9c-0.2-1.2-1.1-2.8-2-3.7L115.3,222.3z"/>
	<path d="M146.2,226.5c0,0,1.1,0.9,1.8,1.5c-0.1,0.2-0.2,0.3-0.5,0.3h-15.8l-0.1-0.5h3.1v-8.8l1.6,0.6h2.4c0-0.5,0.1-1,0.1-1.6h-6.5
		l-0.1-0.5h6.7c0.1-0.7,0.1-1.5,0.1-2.1l2.1,0.2c0,0.3-0.3,0.5-0.6,0.5c-0.1,0.4-0.1,0.9-0.2,1.4h4.2l1-1.2c0,0,1.1,0.8,1.8,1.4
		c0,0.2-0.2,0.3-0.5,0.3h-6.5c-0.1,0.6-0.2,1.2-0.3,1.6h3.1l0.7-0.9l1.8,1.3c-0.1,0.2-0.3,0.3-0.8,0.4v7.5h0.4L146.2,226.5z
		 M131.8,231.7c2-0.8,4.2-2.2,5.2-3.3l1.8,1.2c-0.1,0.2-0.5,0.2-0.9,0.1c-1.4,0.9-3.8,1.8-6,2.3L131.8,231.7z M136.2,220.1v1.5h7.2
		v-1.5H136.2z M143.4,222.1h-7.2v1.5h7.2V222.1z M136.2,224.1v1.5h7.2v-1.5H136.2z M136.2,227.7h7.2v-1.6h-7.2V227.7z M141.4,228.8
		c8.3,0.9,6,4,4.5,2.8c-0.8-0.9-2.3-1.8-4.6-2.6L141.4,228.8z"/>
	<path d="M171.5,226.8c0,0,1,0.7,1.7,1.3c0,0.2-0.2,0.3-0.5,0.3h-7v1.6c0,1-0.3,1.7-2.2,1.9c0-0.4-0.1-0.8-0.4-1
		c-0.3-0.2-0.8-0.4-1.7-0.5v-0.3c0,0,2.1,0.1,2.4,0.1c0.3,0,0.4-0.1,0.4-0.3v-1.6H157l-0.1-0.5h7.5v-1.5h-5.1l-0.1-0.5h5.3v-1.4
		c-1.9,0.1-3.9,0.1-5.9,0.1l0-0.3c3.8-0.2,8.6-0.9,11.2-1.5l1.4,1.4c-0.2,0.1-0.5,0.1-1-0.1c-1.2,0.1-2.6,0.3-4.2,0.4v1.5h2.6l0.9-1
		c0,0,1,0.7,1.6,1.3c-0.1,0.2-0.2,0.3-0.5,0.3h-4.6v1.5h4.9L171.5,226.8z M157.1,220c0.6,0,1.5-0.2,2.7-0.4V218h-2.5l-0.1-0.5h2.7
		v-2.2l2,0.2c-0.1,0.3-0.2,0.4-0.6,0.5v1.5h0.3l0.8-1c0,0,0.9,0.7,1.4,1.3c0,0.2-0.2,0.3-0.5,0.3h-2v1.4c0.7-0.1,1.4-0.3,2.2-0.4
		l0,0.3c-0.6,0.3-1.4,0.5-2.2,0.9v1.9c0,1-0.2,1.5-1.8,1.7c0-0.4-0.1-0.7-0.3-0.9c-0.2-0.2-0.5-0.3-1.2-0.4v-0.3
		c0,0,1.3,0.1,1.6,0.1c0.2,0,0.3-0.1,0.3-0.3v-1.3c-0.5,0.2-1.1,0.4-1.7,0.6c-0.1,0.2-0.3,0.4-0.4,0.4L157.1,220z M163.6,219
		c0.7,0.1,1.2,0.2,1.7,0.4c0.2-0.5,0.3-1,0.3-1.5h-1.9l-0.2-0.5h2.1c0.1-0.7,0.1-1.4,0.1-2.1l1.9,0.2c0,0.2-0.2,0.4-0.6,0.5
		c0,0.5-0.1,0.9-0.1,1.4h1.8l0.7-0.7l1.4,1.1c-0.1,0.1-0.4,0.2-0.7,0.3c0,1.8,0.2,3.5,1.4,3.9c0.2,0.1,0.3,0,0.3-0.2
		c0.1-0.3,0.3-0.8,0.4-1.4l0.2,0l-0.1,1.7c0.4,0.3,0.5,0.5,0.4,0.8c-0.2,0.6-0.9,0.6-1.6,0.4c-2.1-0.6-2.4-2.5-2.5-5.4h-2
		c-0.1,0.7-0.3,1.3-0.5,1.9c2.5,1.1,2.1,2.6,1,2.2c-0.3-0.4-0.9-0.8-1.5-1.3c-0.8,1-2,2-4,2.7l-0.2-0.3c1.8-0.9,2.8-1.9,3.3-3.1
		c-0.5-0.3-1.1-0.6-1.5-0.9L163.6,219z"/>
	<path d="M189.8,219.7c-0.1,0.1-0.4,0.2-0.8,0.2c-0.6,1.1-1.4,2.2-2.5,3.3v0.1c4.4,1.3,3.3,4,2,3.1c-0.3-0.9-1.2-1.9-2-2.7v7.6
		c0,0.1-0.5,0.5-1.2,0.5h-0.3v-7.3c-1,0.9-2.1,1.7-3.2,2.3l-0.2-0.2c2.4-1.8,4.7-4.6,5.8-7.1H182l-0.2-0.5h5.6l0.9-0.8L189.8,219.7z
		 M184,215.3c4.3,1.1,3.2,4,1.7,3c-0.3-1-1.2-2.2-1.9-2.9L184,215.3z M198,229.8c0.5,0.2,0.6,0.4,0.6,0.6c0,0.7-0.8,0.9-3.7,0.9H193
		c-1.6,0-2.1-0.4-2.1-1.6v-14.3l2.1,0.2c0,0.3-0.2,0.5-0.6,0.5v13.1c0,0.5,0.2,0.6,0.9,0.6h1.7c0.7,0,1.3,0,1.6,0
		c0.2,0,0.3-0.1,0.4-0.3c0.2-0.3,0.5-1.6,0.7-2.8h0.2L198,229.8z"/>
	<path d="M223.8,219.3c-0.1,0.1-0.4,0.3-0.8,0.3c-0.3,6.2-0.8,10.2-1.9,11.3c-0.6,0.6-1.4,0.9-2.4,0.9c0-0.5-0.1-0.8-0.4-1
		c-0.3-0.3-1.1-0.5-1.9-0.6l0-0.3c0.9,0.1,2.3,0.2,2.8,0.2c0.4,0,0.5-0.1,0.8-0.3c0.8-0.7,1.3-4.8,1.6-10.4h-0.8
		c-0.8,4.7-2.8,8.8-7,11.5l-0.2-0.2c3.4-2.9,5.1-7,5.7-11.3h-1.1c-0.9,3.3-2.8,6.2-5.6,8.1l-0.2-0.2c2.2-2.1,3.7-5,4.3-7.9h-1.3
		c-0.8,1.3-1.8,2.4-2.9,3.2l-0.2-0.2c0.6-0.7,1.2-1.6,1.6-2.6c-0.1,0-0.1,0-0.2,0h-2.2v3.9c0.8-0.3,1.7-0.5,2.5-0.8l0.1,0.3
		c-0.7,0.4-1.6,0.9-2.6,1.4v6.7c0,0.2-0.6,0.5-1.1,0.5h-0.3v-6.5c-0.6,0.3-1.3,0.6-2,1c-0.1,0.2-0.2,0.4-0.4,0.5l-0.7-1.7
		c0.6-0.2,1.7-0.5,3.1-0.9v-4.4h-1.4c-0.4,1.1-0.9,2.2-1.5,3l-0.3-0.1c0.6-1.7,1-4,1.2-6.3l1.9,0.4c-0.1,0.2-0.2,0.4-0.6,0.4
		c-0.1,0.7-0.3,1.5-0.5,2.1h1.2v-4.1l2,0.2c0,0.3-0.2,0.4-0.6,0.5v3.3h0.4l0.8-1.2c0,0,0.8,0.7,1.4,1.3c0.6-1.3,1-2.7,1.3-4.2
		l2.1,0.6c-0.1,0.2-0.3,0.4-0.7,0.4c-0.3,1-0.7,1.8-1.1,2.6h5.8l0.8-0.9L223.8,219.3z"/>
</g>
</svg>
